<?xml version="1.0" encoding="utf-8"?>
<svg version="1.1" xmlns="http://www.w3.org/2000/svg" xmlns:xlink="http://www.w3.org/1999/xlink" height="37.43837209302387" width="38.30728078817731">
  <defs>
    <path id="path-0" opacity="1" fill-rule="evenodd" d="M1.424971427692372,19.05158899647106 C-2.842170943040401e-14,19.80379965613988 0.059154717939231806,20.90562935480969 1.5537972578712047,21.504219527644732 L5.975941061152786,23.2668821826081 C7.470583601084759,23.86149941181813 9.730293826364495,23.53704234910887 10.998833888839743,22.538509184689353 L30.207028078361283,7.278432721020779 C31.47030994368637,6.2759266129762485 31.605708520302905,6.42424984164334 30.508059865207738,7.608187041896719 L15.322386495555891,23.98201203511014 C14.222108741885654,25.16330060628018 14.546802415907814,26.609452085784316 16.045388603702406,27.193474798660983 L16.563321022992817,27.39741923807823 C18.061907210787407,27.98011763641323 20.50696888561016,28.962759026332698 21.995038679104436,29.571943715501106 L26.900936620200408,31.586226133381857 C28.39032096298223,32.195410822550265 29.60890815253099,32.701298977468376 29.62731184255654,32.75029861551018 C29.612851800393607,32.71983938105176 29.98618379805471,31.476308026423215 30.408154119354776,29.914941181793758 L37.88531046687725,2.2261727445480237 C38.307280788177316,0.6634815853768951 37.48831658204044,0 36.064659703635584,0.7522106596688146 L1.424971427692372,19.05158899647106Z"/>
    <linearGradient id="linearGradient-1" x1="0.99" y1="0.08" x2="0.01" y2="0.97">
      <stop offset="0" stop-color="rgb(141,68,231)" stop-opacity="1"/>
      <stop offset="1" stop-color="rgb(240,127,222)" stop-opacity="1"/>
    </linearGradient>
    <path id="path-2" opacity="1" fill-rule="evenodd" d="M13.564834098116066,37.17483349923147 C13.476759295850943,37.43837209302389 16.58961200874358,32.63375893584351 16.58961200874358,32.63375893584351 C17.46904548210725,31.280309474256313 16.970831302129923,29.665970047960037 15.48276150863564,29.05413672970829 L12.088595248209632,27.653011944620957 C10.60052545471535,27.03985431182754 9.888039740869146,27.758957107954593 10.504563356724994,29.25808116912554 C10.504563356724994,29.259405483667212 13.654223449668722,36.9046733327307 13.564834098116066,37.17483349923147Z"/>
  </defs>
  <g opacity="1">
    <g opacity="1">
      <use xlink:href="#path-0" fill="url(#linearGradient-1)"/>
    </g>
    <g>
      <use xlink:href="#path-2" fill="rgb(191,100,221)" fill-opacity="1"/>
    </g>
  </g>
</svg>