<?xml version="1.0" encoding="utf-8"?>
<svg version="1.1" xmlns="http://www.w3.org/2000/svg" xmlns:xlink="http://www.w3.org/1999/xlink" height="37.488" width="37.13700000000006">
  <defs>
    <path id="path-0" opacity="1" fill-rule="evenodd" d="M37.31250000000017,23.658384470196978 L37.31250000000017,22.989776957548642 L20.694958288252547,11.935095074819591 C20.694958288252547,11.935095074819591 20.69255671658806,20.305806728415718 20.691756192699902,20.280631257269626 C20.693890923068327,20.330717194602382 20.691756192699902,5.262270196307845 20.691756192699902,5.262270196307845 C20.691756192699902,3.427375857196831 20.119114771368544,1.7591696375688943 19.183035504811972,0.5041061496963117 C19.078967399351004,0.31171254914827634 18.82867026365258,0.1754999999999427 18.535678520585556,0.1754999999999427 C18.24295361881459,0.1754999999999427 17.99238964182011,0.3122425590671414 17.888321536359147,0.5038411447368791 C16.952775952394678,1.7589046326094615 16.379600848471213,3.4271108522373983 16.379600848471213,5.262005191348412 C16.379600848471213,5.506339763945228 16.391608706793633,5.7469642671099885 16.411354962701612,5.985203725639854 L16.411354962701612,11.955500456695898 L-0.17549999999982901,22.989776957548642 L-0.17549999999982901,23.658119465237547 L16.361989322931667,21.447448093651168 C16.355051449234267,21.821635096369942 16.351582512385573,22.198472148683035 16.351582512385573,22.578224255549884 C16.351582512385573,25.522429354845574 16.5597187233075,28.308956503278896 16.933029696486702,30.792052973161937 L13.413393001537669,35.561612233029074 L13.413393001537669,35.9151288489121 L17.725548345766356,34.73347173480234 C17.971576020727916,35.67688939038224 18.245622031775124,36.54080555813237 18.54368375946717,37.31249999999997 C18.840944963271056,36.5434556077267 19.11365676783799,35.68271949948976 19.358883918911395,34.74380692822021 L23.65929824611372,35.9151288489121 L23.65929824611372,35.561612233029074 L20.15140256819105,30.80795327072789 C20.525514065258413,28.319821706615627 20.735518165252724,25.527994458993657 20.735518165252724,22.577164235712154 C20.735518165252724,22.196087104048136 20.73178238710797,21.816334997181286 20.72484451341057,21.440027954787055 L37.31250000000017,23.658384470196978Z"/>
  </defs>
  <g transform="translate(18.56850000000017, 18.743999999999957) rotate(90.00003218077504) translate(-18.56850000000017, -18.743999999999957)">
    <use xlink:href="#path-0" fill="rgb(0,124,177)" fill-opacity="1"/>
  </g>
</svg>